<?xml version="1.0" encoding="utf-8"?>
<!-- Generator: Adobe Illustrator 24.1.2, SVG Export Plug-In . SVG Version: 6.00 Build 0)  -->
<svg version="1.1" id="Layer_1" xmlns="http://www.w3.org/2000/svg" xmlns:xlink="http://www.w3.org/1999/xlink" x="0px" y="0px"
	 viewBox="0 0 384 384" style="enable-background:new 0 0 384 384;" xml:space="preserve">
<g>
	<path d="M180,0c8,0,16,0,24,0c0.96,0.21,1.92,0.46,2.89,0.62c11.91,2.05,24.04,3.22,35.69,6.27
		c71.04,18.62,126.63,79.86,138.5,152.02c1.15,7,1.96,14.06,2.92,21.09c0,8,0,16,0,24c-0.21,0.97-0.55,1.92-0.62,2.9
		c-2.55,33.05-12.76,63.55-31.32,90.99c-30.6,45.24-72.83,73.1-126.62,83.13c-7.09,1.32-14.29,2-21.44,2.98c-8,0-16,0-24,0
		c-0.84-0.2-1.66-0.53-2.51-0.59c-33.31-2.53-64.04-12.8-91.67-31.56c-45.07-30.6-72.85-72.74-82.84-126.4
		C1.67,218.36,0.98,211.16,0,204c0-8,0-16,0-24c0.86-6.54,1.51-13.11,2.61-19.61c6.73-39.7,24.15-74.07,52.36-102.77
		C83.74,28.36,118.41,10,158.92,2.94C165.91,1.72,172.97,0.97,180,0z M189.36,252.88c0.98,0.67,1.83,1.2,2.63,1.79
		c14.39,10.59,28.76,21.21,43.15,31.79c10.21,7.51,17.24,4.8,19.88-7.61c7.19-33.82,14.39-67.63,21.58-101.45
		c3.22-15.14,6.51-30.26,9.58-45.43c1.02-5.05,1.75-10.42-2.8-14.32c-4.45-3.81-9.16-1.67-13.76,0.1
		c-45.74,17.66-91.49,35.29-137.23,52.95c-15.71,6.07-31.44,12.09-47.08,18.34c-3.44,1.37-7.4,3.36-6.99,7.82
		c0.4,4.22,4.53,5.29,7.98,6.38c14.27,4.52,28.59,8.88,42.84,13.49c2.92,0.94,5.08,0.52,7.62-1.09
		c34.51-21.84,69.08-43.58,103.65-65.33c1.69-1.06,3.39-2.26,5.25-2.81c1.34-0.39,2.97,0.21,4.47,0.37
		c-0.62,1.12-1.08,2.37-1.9,3.32c-1.14,1.31-2.54,2.4-3.84,3.57c-27.18,24.55-54.34,49.11-81.57,73.6
		c-2.13,1.91-3.01,3.89-3.15,6.73c-0.45,9.11-1.24,18.2-1.87,27.3c-0.4,5.71-0.75,11.42-1.12,17.21c3.94,0.34,6.52-1.51,8.91-3.81
		C173.49,268.17,181.41,260.55,189.36,252.88z"/>
</g>
</svg>
