<?xml version="1.0" encoding="utf-8"?>
<!-- Generator: Adobe Illustrator 24.1.2, SVG Export Plug-In . SVG Version: 6.00 Build 0)  -->
<svg version="1.1" id="Layer_1" xmlns="http://www.w3.org/2000/svg" xmlns:xlink="http://www.w3.org/1999/xlink" x="0px" y="0px"
	 viewBox="0 0 408.81 408.91" style="enable-background:new 0 0 408.81 408.91;" xml:space="preserve">
<g>
	<path d="M216.37,408.91c-7.45,0-14.91,0-22.36,0c-5.8-0.65-11.62-1.16-17.4-1.97c-29.24-4.06-56.39-13.89-81.27-29.84
		c-2.34-1.5-4.36-1.79-7.02-0.91c-13.61,4.51-27.29,8.83-40.95,13.21c-11.08,3.54-22.16,7.07-33.81,10.78
		c0.52-1.7,0.84-2.81,1.21-3.91c7.42-22.16,14.72-44.37,22.39-66.44c1.43-4.13,0.92-7.02-1.49-10.51
		c-20.17-29.15-31.7-61.54-34.79-96.79c-3.83-43.7,4.91-84.92,27.93-122.29C67.03,38.2,123.02,4.55,195.81,0.34
		c40.3-2.33,78.23,7.38,112.75,28.42c53.07,32.36,85.61,79.26,97.06,140.51c1.43,7.67,2.14,15.47,3.18,23.21c0,7.99,0,15.97,0,23.96
		c-0.33,2.87-0.66,5.75-0.98,8.62c-4.88,43.85-21.57,82.57-51.06,115.43c-31.51,35.11-70.61,57.01-117.16,65.25
		C231.91,407.1,224.12,407.87,216.37,408.91z M270.48,319.67c6.57-1.27,12.23-1.7,17.43-3.48c28.95-9.86,38.8-23.85,39.65-50.48
		c0.14-4.21-1.34-7.09-5.21-8.93c-15.23-7.24-30.36-14.71-45.65-21.83c-7.81-3.64-12.39-2.15-17.57,4.81
		c-3.97,5.33-7.85,10.74-11.94,15.97c-6.23,7.96-10.62,9-20.09,5.13c-33.65-13.75-58.67-37.32-77.45-68.01
		c-3.76-6.15-3.56-8.74,1.22-14.28c3.82-4.43,7.78-8.75,11.59-13.19c4.7-5.48,6.68-11.39,2.8-18.26c-1.04-1.84-1.64-3.91-2.47-5.87
		c-5.81-13.69-11.52-27.43-17.57-41.01c-0.98-2.19-3.27-4.82-5.4-5.31c-10.89-2.53-21.87-2.7-31.23,4.49
		c-8.58,6.59-14.6,15.41-18.4,25.59c-7.48,20.08-5.09,39.64,3.19,58.93c6.09,14.19,14.98,26.62,24.07,38.91
		c15.34,20.74,32.88,39.38,53.27,55.29c21.84,17.04,46.75,27.76,73,35.61C252.72,316.43,262.07,317.84,270.48,319.67z"/>
</g>
</svg>
